STARTFONT 2.1
COMMENT
COMMENT  This font is copyrighted by Roar Lauritzsen, who reserves all rights
COMMENT  under national and international copyright laws.
COMMENT
COMMENT  Produced with bdfedit, a tcl/tk font editing program
COMMENT    written by Thomas A. Fine
COMMENT    fine@head-cfa.harvard.edu
COMMENT    http://hea-www.harvard.edu/~fine/
FONT -misc-nethack-medium-r-normal--18-120-100-100-c-120--custom
SIZE 18 72 72
FONTBOUNDINGBOX 12 12 0 -2
STARTPROPERTIES 11
FOUNDRY "Misc"
FAMILY_NAME "Nethack"
WEIGHT_NAME "Medium"
SLANT "R"
SETWIDTH_NAME "Normal"
SPACING "c"
CHARSET_REGISTRY "ISO-8859"
CHARSET_ENCODING "1"
COPYRIGHT "Designer of this font, Roar Lauritzsen, retains full rights under the law"
FONT_ASCENT  10
FONT_DESCENT 2
ENDPROPERTIES
CHARS 191
STARTCHAR C040
ENCODING 32
SWIDTH 666 0
DWIDTH 12 0
BBX 0 0 0 0
BITMAP
ENDCHAR
STARTCHAR C041
ENCODING 33
SWIDTH 666 0
DWIDTH 12 0
BBX 2 10 5 0
BITMAP
c0
c0
c0
c0
c0
80
80
00
c0
c0
ENDCHAR
STARTCHAR C042
ENCODING 34
SWIDTH 666 0
DWIDTH 12 0
BBX 7 3 2 7
BITMAP
66
66
cc
ENDCHAR
STARTCHAR C043
ENCODING 35
SWIDTH 666 0
DWIDTH 12 0
BBX 10 10 1 -1
BITMAP
3300
3300
ffc0
ffc0
3300
3300
ffc0
ffc0
3300
3300
ENDCHAR
STARTCHAR C044
ENCODING 36
SWIDTH 666 0
DWIDTH 12 0
BBX 10 11 1 -1
BITMAP
0c00
3f00
6d80
ccc0
6c00
3f00
0d80
ccc0
6d80
3f00
0c00
ENDCHAR
STARTCHAR C045
ENCODING 37
SWIDTH 666 0
DWIDTH 12 0
BBX 10 9 1 0
BITMAP
70c0
d980
db00
7600
0c00
1b80
36c0
66c0
c380
ENDCHAR
STARTCHAR C046
ENCODING 38
SWIDTH 666 0
DWIDTH 12 0
BBX 10 10 2 -1
BITMAP
8200
fe00
7c00
5440
fe80
ee80
ba80
ba00
6c00
c600
ENDCHAR
STARTCHAR C047
ENCODING 39
SWIDTH 666 0
DWIDTH 12 0
BBX 4 4 4 6
BITMAP
70
70
30
e0
ENDCHAR
STARTCHAR C050
ENCODING 40
SWIDTH 666 0
DWIDTH 12 0
BBX 6 11 3 -1
BITMAP
1c
30
60
c0
c0
c0
c0
c0
60
30
1c
ENDCHAR
STARTCHAR C051
ENCODING 41
SWIDTH 666 0
DWIDTH 12 0
BBX 6 11 3 -1
BITMAP
e0
30
18
0c
0c
0c
0c
0c
18
30
e0
ENDCHAR
STARTCHAR C052
ENCODING 42
SWIDTH 666 0
DWIDTH 12 0
BBX 10 10 1 -1
BITMAP
0c00
0c00
ccc0
edc0
1e00
1e00
edc0
ccc0
0c00
0c00
ENDCHAR
STARTCHAR C053
ENCODING 43
SWIDTH 666 0
DWIDTH 12 0
BBX 8 8 2 0
BITMAP
18
18
18
ff
ff
18
18
18
ENDCHAR
STARTCHAR C054
ENCODING 44
SWIDTH 666 0
DWIDTH 12 0
BBX 4 3 4 -1
BITMAP
70
30
e0
ENDCHAR
STARTCHAR C055
ENCODING 45
SWIDTH 666 0
DWIDTH 12 0
BBX 12 2 0 3
BITMAP
fff0
fff0
ENDCHAR
STARTCHAR C056
ENCODING 46
SWIDTH 666 0
DWIDTH 12 0
BBX 3 2 5 0
BITMAP
e0
e0
ENDCHAR
STARTCHAR C057
ENCODING 47
SWIDTH 666 0
DWIDTH 12 0
BBX 12 12 0 -2
BITMAP
0010
0030
0060
00c0
0180
0300
0600
0c00
1800
3000
6000
c000
ENDCHAR
STARTCHAR C060
ENCODING 48
SWIDTH 666 0
DWIDTH 12 0
BBX 8 10 2 0
BITMAP
3c
66
c3
c3
c3
c3
c3
c3
66
3c
ENDCHAR
STARTCHAR C061
ENCODING 49
SWIDTH 666 0
DWIDTH 12 0
BBX 8 10 2 0
BITMAP
18
38
78
98
18
18
18
18
18
ff
ENDCHAR
STARTCHAR C062
ENCODING 50
SWIDTH 666 0
DWIDTH 12 0
BBX 10 10 1 0
BITMAP
3f00
6180
c0c0
00c0
0180
0700
1c00
7000
c000
ffc0
ENDCHAR
STARTCHAR C063
ENCODING 51
SWIDTH 666 0
DWIDTH 12 0
BBX 10 10 1 0
BITMAP
3f00
6180
c0c0
0180
1f00
0180
00c0
c0c0
6180
3f00
ENDCHAR
STARTCHAR C064
ENCODING 52
SWIDTH 666 0
DWIDTH 12 0
BBX 10 10 1 0
BITMAP
0300
0700
0f00
1b00
3300
6300
c300
ffc0
0300
0300
ENDCHAR
STARTCHAR C065
ENCODING 53
SWIDTH 666 0
DWIDTH 12 0
BBX 10 10 1 0
BITMAP
ff80
c000
c000
ff00
0180
00c0
00c0
c0c0
6180
3f00
ENDCHAR
STARTCHAR C066
ENCODING 54
SWIDTH 666 0
DWIDTH 12 0
BBX 10 10 1 0
BITMAP
1f00
3180
6000
c000
df00
e180
c0c0
c0c0
6180
3f00
ENDCHAR
STARTCHAR C067
ENCODING 55
SWIDTH 666 0
DWIDTH 12 0
BBX 10 10 1 0
BITMAP
ffc0
00c0
00c0
0180
0300
0600
0c00
1800
3000
3000
ENDCHAR
STARTCHAR C070
ENCODING 56
SWIDTH 666 0
DWIDTH 12 0
BBX 10 10 1 0
BITMAP
3f00
6180
c0c0
6180
3f00
6180
c0c0
c0c0
6180
3f00
ENDCHAR
STARTCHAR C071
ENCODING 57
SWIDTH 666 0
DWIDTH 12 0
BBX 10 10 1 0
BITMAP
3f00
6180
c0c0
c0c0
61c0
3ec0
00c0
0180
6300
3e00
ENDCHAR
STARTCHAR C072
ENCODING 58
SWIDTH 666 0
DWIDTH 12 0
BBX 3 6 5 0
BITMAP
e0
e0
00
00
e0
e0
ENDCHAR
STARTCHAR C073
ENCODING 59
SWIDTH 666 0
DWIDTH 12 0
BBX 4 7 4 -1
BITMAP
70
70
00
00
70
30
e0
ENDCHAR
STARTCHAR C074
ENCODING 60
SWIDTH 666 0
DWIDTH 12 0
BBX 5 10 3 -1
BITMAP
08
18
30
60
c0
c0
60
30
18
08
ENDCHAR
STARTCHAR C075
ENCODING 61
SWIDTH 666 0
DWIDTH 12 0
BBX 8 6 2 1
BITMAP
ff
ff
00
00
ff
ff
ENDCHAR
STARTCHAR C076
ENCODING 62
SWIDTH 666 0
DWIDTH 12 0
BBX 5 10 4 -1
BITMAP
80
c0
60
30
18
18
30
60
c0
80
ENDCHAR
STARTCHAR C077
ENCODING 63
SWIDTH 666 0
DWIDTH 12 0
BBX 10 10 1 0
BITMAP
3f00
6180
c0c0
00c0
0380
0600
0e00
0000
0e00
0e00
ENDCHAR
STARTCHAR C100
ENCODING 64
SWIDTH 666 0
DWIDTH 12 0
BBX 8 10 2 -1
BITMAP
18
3c
3c
18
66
ff
bd
bd
34
66
ENDCHAR
STARTCHAR C101
ENCODING 65
SWIDTH 666 0
DWIDTH 12 0
BBX 10 10 1 0
BITMAP
1e00
1e00
3300
3300
6180
6180
7f80
c0c0
c0c0
c0c0
ENDCHAR
STARTCHAR C102
ENCODING 66
SWIDTH 666 0
DWIDTH 12 0
BBX 10 10 1 0
BITMAP
ff00
c180
c0c0
c180
ff00
c180
c0c0
c0c0
c180
ff00
ENDCHAR
STARTCHAR C103
ENCODING 67
SWIDTH 666 0
DWIDTH 12 0
BBX 10 10 1 0
BITMAP
1f00
3180
60c0
c000
c000
c000
c000
60c0
3180
1f00
ENDCHAR
STARTCHAR C104
ENCODING 68
SWIDTH 666 0
DWIDTH 12 0
BBX 10 10 1 0
BITMAP
fe00
c300
c180
c0c0
c0c0
c0c0
c0c0
c180
c300
fe00
ENDCHAR
STARTCHAR C105
ENCODING 69
SWIDTH 666 0
DWIDTH 12 0
BBX 10 10 1 0
BITMAP
ffc0
c000
c000
c000
ff00
c000
c000
c000
c000
ffc0
ENDCHAR
STARTCHAR C106
ENCODING 70
SWIDTH 666 0
DWIDTH 12 0
BBX 10 10 1 0
BITMAP
ffc0
c000
c000
c000
c000
ff00
c000
c000
c000
c000
ENDCHAR
STARTCHAR C107
ENCODING 71
SWIDTH 666 0
DWIDTH 12 0
BBX 10 10 1 0
BITMAP
1f00
3180
60c0
c000
c000
c7c0
c0c0
60c0
31c0
1ec0
ENDCHAR
STARTCHAR C110
ENCODING 72
SWIDTH 666 0
DWIDTH 12 0
BBX 10 10 1 0
BITMAP
c0c0
c0c0
c0c0
c0c0
ffc0
c0c0
c0c0
c0c0
c0c0
c0c0
ENDCHAR
STARTCHAR C111
ENCODING 73
SWIDTH 666 0
DWIDTH 12 0
BBX 6 10 3 0
BITMAP
fc
30
30
30
30
30
30
30
30
fc
ENDCHAR
STARTCHAR C112
ENCODING 74
SWIDTH 666 0
DWIDTH 12 0
BBX 10 10 1 0
BITMAP
1fc0
00c0
00c0
00c0
00c0
00c0
00c0
0180
c300
7e00
ENDCHAR
STARTCHAR C113
ENCODING 75
SWIDTH 666 0
DWIDTH 12 0
BBX 10 10 1 0
BITMAP
c0c0
c180
c300
c600
fc00
c600
c300
c180
c0c0
c0c0
ENDCHAR
STARTCHAR C114
ENCODING 76
SWIDTH 666 0
DWIDTH 12 0
BBX 10 10 1 0
BITMAP
c000
c000
c000
c000
c000
c000
c000
c000
c000
ffc0
ENDCHAR
STARTCHAR C115
ENCODING 77
SWIDTH 666 0
DWIDTH 12 0
BBX 10 10 1 0
BITMAP
8040
c0c0
e1c0
f3c0
dec0
ccc0
c0c0
c0c0
c0c0
c0c0
ENDCHAR
STARTCHAR C116
ENCODING 78
SWIDTH 666 0
DWIDTH 12 0
BBX 10 10 1 0
BITMAP
c0c0
e0c0
f0c0
d8c0
ccc0
c6c0
c3c0
c1c0
c0c0
c0c0
ENDCHAR
STARTCHAR C117
ENCODING 79
SWIDTH 666 0
DWIDTH 12 0
BBX 10 10 1 0
BITMAP
1e00
3300
6180
c0c0
c0c0
c0c0
c0c0
6180
3300
1e00
ENDCHAR
STARTCHAR C120
ENCODING 80
SWIDTH 666 0
DWIDTH 12 0
BBX 10 10 1 0
BITMAP
ff00
c180
c0c0
c0c0
c180
ff00
c000
c000
c000
c000
ENDCHAR
STARTCHAR C121
ENCODING 81
SWIDTH 666 0
DWIDTH 12 0
BBX 10 12 1 -2
BITMAP
1e00
3300
6180
c0c0
c0c0
c0c0
c0c0
6d80
3700
1e00
0380
0180
ENDCHAR
STARTCHAR C122
ENCODING 82
SWIDTH 666 0
DWIDTH 12 0
BBX 10 10 1 0
BITMAP
ff00
c180
c0c0
c0c0
c180
ff00
c300
c180
c0c0
c0c0
ENDCHAR
STARTCHAR C123
ENCODING 83
SWIDTH 666 0
DWIDTH 12 0
BBX 10 10 1 0
BITMAP
3f00
6180
c000
6000
3f00
0180
00c0
c0c0
6180
3f00
ENDCHAR
STARTCHAR C124
ENCODING 84
SWIDTH 666 0
DWIDTH 12 0
BBX 10 10 1 0
BITMAP
ffc0
0c00
0c00
0c00
0c00
0c00
0c00
0c00
0c00
0c00
ENDCHAR
STARTCHAR C125
ENCODING 85
SWIDTH 666 0
DWIDTH 12 0
BBX 10 10 1 0
BITMAP
c0c0
c0c0
c0c0
c0c0
c0c0
c0c0
c0c0
6180
3300
1e00
ENDCHAR
STARTCHAR C126
ENCODING 86
SWIDTH 666 0
DWIDTH 12 0
BBX 10 10 1 0
BITMAP
c0c0
c0c0
c0c0
6180
6180
6180
3300
3300
1e00
1e00
ENDCHAR
STARTCHAR C127
ENCODING 87
SWIDTH 666 0
DWIDTH 12 0
BBX 10 10 1 0
BITMAP
c0c0
c0c0
c0c0
ccc0
ccc0
6d80
6d80
7f80
3300
3300
ENDCHAR
STARTCHAR C130
ENCODING 88
SWIDTH 666 0
DWIDTH 12 0
BBX 10 10 1 0
BITMAP
c0c0
6180
3300
1e00
0c00
1e00
3300
6180
c0c0
c0c0
ENDCHAR
STARTCHAR C131
ENCODING 89
SWIDTH 666 0
DWIDTH 12 0
BBX 10 10 1 0
BITMAP
c0c0
c0c0
6180
3300
1e00
0c00
0c00
0c00
0c00
0c00
ENDCHAR
STARTCHAR C132
ENCODING 90
SWIDTH 666 0
DWIDTH 12 0
BBX 10 10 1 0
BITMAP
ffc0
00c0
0180
0300
0600
0c00
1800
3000
6000
ffc0
ENDCHAR
STARTCHAR C133
ENCODING 91
SWIDTH 666 0
DWIDTH 12 0
BBX 6 11 3 -1
BITMAP
fc
c0
c0
c0
c0
c0
c0
c0
c0
c0
fc
ENDCHAR
STARTCHAR C134
ENCODING 92
SWIDTH 666 0
DWIDTH 12 0
BBX 12 12 0 -2
BITMAP
8000
c000
6000
3000
1800
0c00
0600
0300
0180
00c0
0060
0030
ENDCHAR
STARTCHAR C135
ENCODING 93
SWIDTH 666 0
DWIDTH 12 0
BBX 6 11 3 -1
BITMAP
fc
0c
0c
0c
0c
0c
0c
0c
0c
0c
fc
ENDCHAR
STARTCHAR C136
ENCODING 94
SWIDTH 666 0
DWIDTH 12 0
BBX 8 4 2 5
BITMAP
18
3c
66
c3
ENDCHAR
STARTCHAR C137
ENCODING 95
SWIDTH 666 0
DWIDTH 12 0
BBX 10 2 1 -2
BITMAP
ffc0
ffc0
ENDCHAR
STARTCHAR C140
ENCODING 96
SWIDTH 666 0
DWIDTH 12 0
BBX 4 4 4 6
BITMAP
e0
e0
c0
70
ENDCHAR
STARTCHAR C141
ENCODING 97
SWIDTH 666 0
DWIDTH 12 0
BBX 10 8 1 0
BITMAP
7f00
4180
00c0
3fc0
60c0
c1c0
63c0
3ec0
ENDCHAR
STARTCHAR C142
ENCODING 98
SWIDTH 666 0
DWIDTH 12 0
BBX 10 10 1 0
BITMAP
c000
c000
cf00
d980
e0c0
c0c0
c0c0
c0c0
e180
de00
ENDCHAR
STARTCHAR C143
ENCODING 99
SWIDTH 666 0
DWIDTH 12 0
BBX 9 8 1 0
BITMAP
1e00
6180
c080
c000
c000
c080
6180
1e00
ENDCHAR
STARTCHAR C144
ENCODING 100
SWIDTH 666 0
DWIDTH 12 0
BBX 10 10 1 0
BITMAP
00c0
00c0
1ec0
61c0
c0c0
c0c0
c0c0
c1c0
66c0
3cc0
ENDCHAR
STARTCHAR C145
ENCODING 101
SWIDTH 666 0
DWIDTH 12 0
BBX 10 8 1 0
BITMAP
1f00
60c0
c0c0
ffc0
c000
c000
60c0
1f80
ENDCHAR
STARTCHAR C146
ENCODING 102
SWIDTH 666 0
DWIDTH 12 0
BBX 8 10 3 0
BITMAP
0f
18
30
30
fe
30
30
30
30
30
ENDCHAR
STARTCHAR C147
ENCODING 103
SWIDTH 666 0
DWIDTH 12 0
BBX 10 10 1 -2
BITMAP
1ec0
61c0
c0c0
c0c0
c1c0
66c0
3cc0
00c0
c180
7f00
ENDCHAR
STARTCHAR C150
ENCODING 104
SWIDTH 666 0
DWIDTH 12 0
BBX 10 10 1 0
BITMAP
c000
c000
cf00
d980
e0c0
c0c0
c0c0
c0c0
c0c0
c0c0
ENDCHAR
STARTCHAR C151
ENCODING 105
SWIDTH 666 0
DWIDTH 12 0
BBX 5 10 2 0
BITMAP
18
18
00
f8
18
18
18
18
18
18
ENDCHAR
STARTCHAR C152
ENCODING 106
SWIDTH 666 0
DWIDTH 12 0
BBX 6 12 1 -2
BITMAP
0c
0c
00
7c
0c
0c
0c
0c
0c
0c
18
f0
ENDCHAR
STARTCHAR C153
ENCODING 107
SWIDTH 666 0
DWIDTH 12 0
BBX 10 10 1 0
BITMAP
c000
c000
c000
c0c0
c380
ce00
f800
ce00
c380
c0c0
ENDCHAR
STARTCHAR C154
ENCODING 108
SWIDTH 666 0
DWIDTH 12 0
BBX 5 10 2 0
BITMAP
f8
18
18
18
18
18
18
18
18
18
ENDCHAR
STARTCHAR C155
ENCODING 109
SWIDTH 666 0
DWIDTH 12 0
BBX 10 8 1 0
BITMAP
bb80
eec0
ccc0
ccc0
ccc0
ccc0
ccc0
ccc0
ENDCHAR
STARTCHAR C156
ENCODING 110
SWIDTH 666 0
DWIDTH 12 0
BBX 10 8 1 0
BITMAP
cf00
d980
e0c0
c0c0
c0c0
c0c0
c0c0
c0c0
ENDCHAR
STARTCHAR C157
ENCODING 111
SWIDTH 666 0
DWIDTH 12 0
BBX 10 8 1 0
BITMAP
1e00
6180
c0c0
c0c0
c0c0
c0c0
6180
1e00
ENDCHAR
STARTCHAR C160
ENCODING 112
SWIDTH 666 0
DWIDTH 12 0
BBX 10 10 1 -2
BITMAP
cf00
d980
e0c0
c0c0
c0c0
c0c0
e180
de00
c000
c000
ENDCHAR
STARTCHAR C161
ENCODING 113
SWIDTH 666 0
DWIDTH 12 0
BBX 10 10 1 -2
BITMAP
1ec0
61c0
c0c0
c0c0
c0c0
c1c0
66c0
3cc0
00c0
00c0
ENDCHAR
STARTCHAR C162
ENCODING 114
SWIDTH 666 0
DWIDTH 12 0
BBX 10 8 1 0
BITMAP
cf80
d8c0
e0c0
c000
c000
c000
c000
c000
ENDCHAR
STARTCHAR C163
ENCODING 115
SWIDTH 666 0
DWIDTH 12 0
BBX 10 8 1 0
BITMAP
7f00
c180
c000
7800
0780
00c0
c0c0
7f00
ENDCHAR
STARTCHAR C164
ENCODING 116
SWIDTH 666 0
DWIDTH 12 0
BBX 8 10 3 0
BITMAP
10
30
fe
30
30
30
30
30
18
0f
ENDCHAR
STARTCHAR C165
ENCODING 117
SWIDTH 666 0
DWIDTH 12 0
BBX 10 8 1 0
BITMAP
c0c0
c0c0
c0c0
c0c0
c0c0
c1c0
66c0
3cc0
ENDCHAR
STARTCHAR C166
ENCODING 118
SWIDTH 666 0
DWIDTH 12 0
BBX 10 8 1 0
BITMAP
c0c0
c0c0
6180
6180
3300
3300
1e00
0c00
ENDCHAR
STARTCHAR C167
ENCODING 119
SWIDTH 666 0
DWIDTH 12 0
BBX 10 8 1 0
BITMAP
c0c0
c0c0
ccc0
ccc0
6d80
7f80
3300
3300
ENDCHAR
STARTCHAR C170
ENCODING 120
SWIDTH 666 0
DWIDTH 12 0
BBX 10 8 1 0
BITMAP
c0c0
6180
3300
1e00
1e00
3300
6180
c0c0
ENDCHAR
STARTCHAR C171
ENCODING 121
SWIDTH 666 0
DWIDTH 12 0
BBX 10 10 1 -2
BITMAP
c0c0
c0c0
c0c0
c0c0
c1c0
66c0
3cc0
00c0
c180
7f00
ENDCHAR
STARTCHAR C172
ENCODING 122
SWIDTH 666 0
DWIDTH 12 0
BBX 9 8 2 0
BITMAP
ff80
0300
0600
0c00
1800
3000
6000
ff80
ENDCHAR
STARTCHAR C173
ENCODING 123
SWIDTH 666 0
DWIDTH 12 0
BBX 10 11 1 -1
BITMAP
6300
1600
0880
6e40
9900
0c00
6d80
8c40
c0c0
7f80
3f00
ENDCHAR
STARTCHAR C174
ENCODING 124
SWIDTH 666 0
DWIDTH 12 0
BBX 2 12 5 -2
BITMAP
c0
c0
c0
c0
c0
c0
c0
c0
c0
c0
c0
c0
ENDCHAR
STARTCHAR C175
ENCODING 125
SWIDTH 666 0
DWIDTH 12 0
BBX 12 12 0 -2
BITMAP
3320
8580
0cd0
6060
b300
1e60
80d0
0380
7020
19c0
cf10
6030
ENDCHAR
STARTCHAR C176
ENCODING 126
SWIDTH 666 0
DWIDTH 12 0
BBX 9 3 2 6
BITMAP
7880
dd80
8f00
ENDCHAR
STARTCHAR C240
ENCODING 160
SWIDTH 666 0
DWIDTH 12 0
BBX 11 11 1 -2
BITMAP
3800
5600
ff80
efe0
c780
ef40
fd80
de00
e900
4440
9000
ENDCHAR
STARTCHAR C241
ENCODING 161
SWIDTH 666 0
DWIDTH 12 0
BBX 6 9 3 -1
BITMAP
30
30
78
30
78
9c
bc
fc
78
ENDCHAR
STARTCHAR C242
ENCODING 162
SWIDTH 666 0
DWIDTH 12 0
BBX 7 9 2 -1
BITMAP
38
44
82
82
82
44
38
7c
38
ENDCHAR
STARTCHAR C243
ENCODING 163
SWIDTH 666 0
DWIDTH 12 0
BBX 8 7 2 -1
BITMAP
bd
81
ff
7e
18
18
7e
ENDCHAR
STARTCHAR C244
ENCODING 164
SWIDTH 666 0
DWIDTH 12 0
BBX 10 7 1 -1
BITMAP
0600
3300
6d80
1e00
6d80
f3c0
6d80
ENDCHAR
STARTCHAR C245
ENCODING 165
SWIDTH 666 0
DWIDTH 12 0
BBX 10 10 1 -1
BITMAP
6000
6000
f000
f780
8f40
9ec0
a140
e940
2180
3f00
ENDCHAR
STARTCHAR C246
ENCODING 166
SWIDTH 666 0
DWIDTH 12 0
BBX 9 10 1 -1
BITMAP
3e00
7f00
7f00
e380
c980
d180
c180
6300
7f00
3e00
ENDCHAR
STARTCHAR C247
ENCODING 167
SWIDTH 666 0
DWIDTH 12 0
BBX 10 10 1 -1
BITMAP
0c00
1200
1200
0e80
6740
9e40
0600
1b00
2080
1080
ENDCHAR
STARTCHAR C250
ENCODING 168
SWIDTH 666 0
DWIDTH 12 0
BBX 11 8 0 -1
BITMAP
2d80
5b60
b6c0
ffa0
9940
b7a0
b740
ff80
ENDCHAR
STARTCHAR C251
ENCODING 169
SWIDTH 666 0
DWIDTH 12 0
BBX 9 10 2 -1
BITMAP
0080
0180
0100
0300
0600
3c00
1800
7c00
e000
4000
ENDCHAR
STARTCHAR C252
ENCODING 170
SWIDTH 666 0
DWIDTH 12 0
BBX 7 5 2 0
BITMAP
7c
fa
74
28
10
ENDCHAR
STARTCHAR C253
ENCODING 171
SWIDTH 666 0
DWIDTH 12 0
BBX 10 10 1 -1
BITMAP
1800
3e00
3980
7ac0
6bc0
f340
9f40
6680
1880
0700
ENDCHAR
STARTCHAR C254
ENCODING 172
SWIDTH 666 0
DWIDTH 12 0
BBX 12 8 0 -1
BITMAP
6c00
9300
6e80
0100
0280
02a0
0150
00a0
ENDCHAR
STARTCHAR C255
ENCODING 173
SWIDTH 666 0
DWIDTH 12 0
BBX 12 12 0 -2
BITMAP
fff0
fff0
bfd0
df90
b090
d090
b090
d090
bf90
c010
8010
fff0
ENDCHAR
STARTCHAR C256
ENCODING 174
SWIDTH 666 0
DWIDTH 12 0
BBX 2 2 5 3
BITMAP
c0
c0
ENDCHAR
STARTCHAR C257
ENCODING 175
SWIDTH 666 0
DWIDTH 12 0
BBX 8 8 2 0
BITMAP
02
07
0a
14
38
50
e0
c0
ENDCHAR
STARTCHAR C260
ENCODING 176
SWIDTH 666 0
DWIDTH 12 0
BBX 5 5 3 1
BITMAP
70
f8
e8
c8
70
ENDCHAR
STARTCHAR C261
ENCODING 177
SWIDTH 666 0
DWIDTH 12 0
BBX 10 12 1 -2
BITMAP
eac0
d4c0
cac0
c4c0
8a00
5440
aa80
d4c0
cac0
c4c0
8a80
5440
ENDCHAR
STARTCHAR C262
ENCODING 178
SWIDTH 666 0
DWIDTH 12 0
BBX 12 11 0 -1
BITMAP
38e0
e380
aaa0
71c0
f7d0
c710
aaa0
5550
aaa0
5550
aaa0
ENDCHAR
STARTCHAR C263
ENCODING 179
SWIDTH 666 0
DWIDTH 12 0
BBX 12 12 0 -2
BITMAP
3f80
e550
eac0
ffd0
d540
aaa0
0000
7560
6060
6260
4540
2a20
ENDCHAR
STARTCHAR C264
ENCODING 180
SWIDTH 666 0
DWIDTH 12 0
BBX 12 11 0 -1
BITMAP
3f80
e550
eac0
ffd0
d540
aaa0
0000
5550
aaa0
5550
aaa0
ENDCHAR
STARTCHAR C265
ENCODING 181
SWIDTH 666 0
DWIDTH 12 0
BBX 10 3 1 6
BITMAP
ffc0
d540
7f80
ENDCHAR
STARTCHAR C266
ENCODING 182
SWIDTH 666 0
DWIDTH 12 0
BBX 3 10 1 -1
BITMAP
c0
a0
e0
a0
e0
a0
e0
a0
e0
c0
ENDCHAR
STARTCHAR C267
ENCODING 183
SWIDTH 666 0
DWIDTH 12 0
BBX 10 8 1 0
BITMAP
7f80
ffc0
5bc0
ff40
ff40
fe40
5bc0
ffc0
ENDCHAR
STARTCHAR C270
ENCODING 184
SWIDTH 666 0
DWIDTH 12 0
BBX 11 12 0 -2
BITMAP
2220
8880
2220
8880
2620
8980
2920
8e80
2220
8880
2220
8880
ENDCHAR
STARTCHAR C271
ENCODING 185
SWIDTH 666 0
DWIDTH 12 0
BBX 12 12 0 -2
BITMAP
5550
aaa0
5550
aaa0
5750
a9a0
5950
aea0
5550
aaa0
5550
aaa0
ENDCHAR
STARTCHAR C272
ENCODING 186
SWIDTH 666 0
DWIDTH 12 0
BBX 9 9 1 -1
BITMAP
0300
3780
1780
df00
7c00
3f00
7900
6c00
0400
ENDCHAR
STARTCHAR C273
ENCODING 187
SWIDTH 666 0
DWIDTH 12 0
BBX 9 9 2 -1
BITMAP
3800
1c00
9600
fe00
f600
6f80
3f00
0600
0400
ENDCHAR
STARTCHAR C274
ENCODING 188
SWIDTH 666 0
DWIDTH 12 0
BBX 9 11 2 -1
BITMAP
0380
0380
0000
0f80
0f80
0100
3e80
3f00
0280
fd00
fa80
ENDCHAR
STARTCHAR C275
ENCODING 189
SWIDTH 666 0
DWIDTH 12 0
BBX 7 5 2 1
BITMAP
7c
c6
82
c6
7c
ENDCHAR
STARTCHAR C276
ENCODING 190
SWIDTH 666 0
DWIDTH 12 0
BBX 10 10 1 -2
BITMAP
e000
c000
9c00
3800
7380
e700
ce40
9cc0
39c0
7380
ENDCHAR
STARTCHAR C277
ENCODING 191
SWIDTH 666 0
DWIDTH 12 0
BBX 10 11 1 -2
BITMAP
7f80
dec0
7f80
0000
7f80
dec0
7f80
0000
7f80
dec0
7f80
ENDCHAR
STARTCHAR C300
ENCODING 192
SWIDTH 666 0
DWIDTH 12 0
BBX 9 10 1 -1
BITMAP
3e00
7700
4100
f780
c180
f780
c180
6300
7f00
3e00
ENDCHAR
STARTCHAR C301
ENCODING 193
SWIDTH 666 0
DWIDTH 12 0
BBX 11 10 0 -1
BITMAP
1080
39c0
5be0
6e60
4f20
a320
0300
0e00
1840
0f80
ENDCHAR
STARTCHAR C302
ENCODING 194
SWIDTH 666 0
DWIDTH 12 0
BBX 11 4 0 4
BITMAP
4a40
ffe0
e4e0
4040
ENDCHAR
STARTCHAR C303
ENCODING 195
SWIDTH 666 0
DWIDTH 12 0
BBX 10 12 1 -2
BITMAP
1000
3800
1000
6c00
ba00
b800
3f80
7f40
7f00
5500
5500
1100
ENDCHAR
STARTCHAR C304
ENCODING 196
SWIDTH 666 0
DWIDTH 12 0
BBX 12 12 0 -2
BITMAP
1c00
2e00
3e00
6600
9c00
3780
6bc0
d7e0
ffb0
d9b0
1860
01c0
ENDCHAR
STARTCHAR C305
ENCODING 197
SWIDTH 666 0
DWIDTH 12 0
BBX 8 12 1 -2
BITMAP
3c
6a
7e
e7
a5
a5
bd
bd
b5
34
76
f7
ENDCHAR
STARTCHAR C306
ENCODING 198
SWIDTH 666 0
DWIDTH 12 0
BBX 10 10 1 -1
BITMAP
3380
5cc0
99c0
9b80
7f00
1980
3bc0
4ec0
6e40
39c0
ENDCHAR
STARTCHAR C307
ENCODING 199
SWIDTH 666 0
DWIDTH 12 0
BBX 7 11 3 -1
BITMAP
10
10
38
7c
44
28
fe
ba
54
6c
6c
ENDCHAR
STARTCHAR C310
ENCODING 200
SWIDTH 666 0
DWIDTH 12 0
BBX 12 12 0 -2
BITMAP
0f00
1680
1f80
0900
7fe0
fff0
cf30
cf30
6f60
6d60
0d80
3de0
ENDCHAR
STARTCHAR C311
ENCODING 201
SWIDTH 666 0
DWIDTH 12 0
BBX 12 12 0 -2
BITMAP
5550
a0a0
40d0
8060
4070
8060
4070
a060
4070
a0e0
57d0
aaa0
ENDCHAR
STARTCHAR C312
ENCODING 202
SWIDTH 666 0
DWIDTH 12 0
BBX 9 10 1 -1
BITMAP
3e00
7700
6300
f780
e380
e380
f780
6300
7700
3e00
ENDCHAR
STARTCHAR C313
ENCODING 203
SWIDTH 666 0
DWIDTH 12 0
BBX 10 11 1 -2
BITMAP
1800
3c00
2c40
7e40
3c40
1bc0
7e40
3c80
9fc0
fb80
3100
ENDCHAR
STARTCHAR C314
ENCODING 204
SWIDTH 666 0
DWIDTH 12 0
BBX 8 12 1 -2
BITMAP
38
2c
7c
68
0e
3e
4f
97
07
0d
39
07
ENDCHAR
STARTCHAR C315
ENCODING 205
SWIDTH 666 0
DWIDTH 12 0
BBX 8 11 1 -2
BITMAP
3c
3e
15
3c
7e
ff
bd
b5
b6
36
77
ENDCHAR
STARTCHAR C316
ENCODING 206
SWIDTH 666 0
DWIDTH 12 0
BBX 9 11 2 -2
BITMAP
6000
f000
6000
9000
f000
f000
ef00
ff80
7180
0300
0400
ENDCHAR
STARTCHAR C317
ENCODING 207
SWIDTH 666 0
DWIDTH 12 0
BBX 10 12 1 -2
BITMAP
1c00
ff80
4900
7f00
2200
7fc0
fec0
9240
dec0
dec0
1e00
7bc0
ENDCHAR
STARTCHAR C320
ENCODING 208
SWIDTH 666 0
DWIDTH 12 0
BBX 10 9 1 -1
BITMAP
1c00
3e00
6b00
d500
ab00
d580
79c0
0340
03c0
ENDCHAR
STARTCHAR C321
ENCODING 209
SWIDTH 666 0
DWIDTH 12 0
BBX 11 11 0 -2
BITMAP
0f80
1240
1b40
af80
f700
f880
efc0
efc0
4c80
0cc0
1060
ENDCHAR
STARTCHAR C322
ENCODING 210
SWIDTH 666 0
DWIDTH 12 0
BBX 11 10 1 -1
BITMAP
3800
5400
6c80
6d80
29c0
7d60
fc80
bb80
3f00
1c00
ENDCHAR
STARTCHAR C323
ENCODING 211
SWIDTH 666 0
DWIDTH 12 0
BBX 11 10 0 -1
BITMAP
3800
7c60
5ec0
76c0
4660
ae60
1ce0
1dc0
0f80
0700
ENDCHAR
STARTCHAR C324
ENCODING 212
SWIDTH 666 0
DWIDTH 12 0
BBX 9 12 2 -2
BITMAP
3e00
ea00
7f00
e300
e380
dd80
ab80
6f00
1600
3700
6600
6200
ENDCHAR
STARTCHAR C325
ENCODING 213
SWIDTH 666 0
DWIDTH 12 0
BBX 12 12 0 -2
BITMAP
3e00
7f00
aa80
ffa0
eab0
aae0
bec0
f600
b600
3600
7700
e300
ENDCHAR
STARTCHAR C326
ENCODING 214
SWIDTH 666 0
DWIDTH 12 0
BBX 10 12 1 -2
BITMAP
0e00
1b00
9540
5100
ff80
7f80
bf80
9f80
ff80
1f80
1b80
3180
ENDCHAR
STARTCHAR C327
ENCODING 215
SWIDTH 666 0
DWIDTH 12 0
BBX 12 11 0 -2
BITMAP
3e00
2700
1300
1300
6e80
dd80
de80
5f80
4e30
6de0
0780
ENDCHAR
STARTCHAR C330
ENCODING 216
SWIDTH 666 0
DWIDTH 12 0
BBX 8 11 2 -2
BITMAP
db
ff
80
f7
b5
81
ee
ee
81
ff
db
ENDCHAR
STARTCHAR C331
ENCODING 217
SWIDTH 666 0
DWIDTH 12 0
BBX 11 10 0 -1
BITMAP
1e00
2b00
3f80
77c0
dd60
9320
df60
df60
1b00
7bc0
ENDCHAR
STARTCHAR C332
ENCODING 218
SWIDTH 666 0
DWIDTH 12 0
BBX 11 10 0 -1
BITMAP
0400
0e00
0400
3b80
7fc0
ce60
8e20
0b80
1080
38c0
ENDCHAR
STARTCHAR C333
ENCODING 219
SWIDTH 666 0
DWIDTH 12 0
BBX 10 8 1 0
BITMAP
3f00
a940
b140
a940
3100
5a80
ad40
6180
ENDCHAR
STARTCHAR C334
ENCODING 220
SWIDTH 666 0
DWIDTH 12 0
BBX 11 10 0 -1
BITMAP
4440
eee0
aaa0
eee0
eee0
eee0
eee0
aaa0
eee0
4440
ENDCHAR
STARTCHAR C335
ENCODING 221
SWIDTH 666 0
DWIDTH 12 0
BBX 11 10 0 -1
BITMAP
2d80
5b60
b6c0
ffa0
6640
ffa0
9940
b7a0
b740
ff80
ENDCHAR
STARTCHAR C336
ENCODING 222
SWIDTH 666 0
DWIDTH 12 0
BBX 9 10 1 -1
BITMAP
3600
6300
7700
e380
dd80
dd80
e380
7700
6300
3600
ENDCHAR
STARTCHAR C337
ENCODING 223
SWIDTH 666 0
DWIDTH 12 0
BBX 10 5 1 -1
BITMAP
7f80
ebc0
5480
6080
ffc0
ENDCHAR
STARTCHAR C340
ENCODING 224
SWIDTH 666 0
DWIDTH 12 0
BBX 9 9 1 -1
BITMAP
1e00
7f00
4f00
de80
fd00
bc80
f500
6a00
1400
ENDCHAR
STARTCHAR C341
ENCODING 225
SWIDTH 666 0
DWIDTH 12 0
BBX 10 7 1 -1
BITMAP
2380
5d80
0e00
7680
f540
9500
3500
ENDCHAR
STARTCHAR C342
ENCODING 226
SWIDTH 666 0
DWIDTH 12 0
BBX 10 10 1 -2
BITMAP
0c00
7e80
bf00
6780
e7c0
7e80
1e00
ac40
0100
4000
ENDCHAR
STARTCHAR C343
ENCODING 227
SWIDTH 666 0
DWIDTH 12 0
BBX 10 10 1 -1
BITMAP
1800
6800
d800
1f80
3fc0
13c0
00c0
08c0
1180
0f00
ENDCHAR
STARTCHAR C344
ENCODING 228
SWIDTH 666 0
DWIDTH 12 0
BBX 12 9 0 -1
BITMAP
4800
5830
7060
ef80
dfc0
1740
1440
34c0
0c00
ENDCHAR
STARTCHAR C345
ENCODING 229
SWIDTH 666 0
DWIDTH 12 0
BBX 8 8 1 1
BITMAP
3c
7e
c7
bb
ab
bb
46
3c
ENDCHAR
STARTCHAR C346
ENCODING 230
SWIDTH 666 0
DWIDTH 12 0
BBX 11 10 0 -1
BITMAP
00c0
0020
8820
d820
afc0
ffc0
f7e0
ef60
18c0
7380
ENDCHAR
STARTCHAR C347
ENCODING 231
SWIDTH 666 0
DWIDTH 12 0
BBX 11 11 0 -2
BITMAP
e0e0
71c0
3f80
1500
1500
1f00
0e80
35c0
7a40
6f00
1b00
ENDCHAR
STARTCHAR C350
ENCODING 232
SWIDTH 666 0
DWIDTH 12 0
BBX 7 10 2 -1
BITMAP
10
38
7c
54
28
ee
ba
38
6c
6c
ENDCHAR
STARTCHAR C351
ENCODING 233
SWIDTH 666 0
DWIDTH 12 0
BBX 9 8 2 -1
BITMAP
5400
7e00
3a00
7c00
b880
bf00
2800
6c00
ENDCHAR
STARTCHAR C352
ENCODING 234
SWIDTH 666 0
DWIDTH 12 0
BBX 10 9 1 -1
BITMAP
0c00
6e00
fd80
ffc0
c9c0
edc0
ff80
7f00
1e00
ENDCHAR
STARTCHAR C353
ENCODING 235
SWIDTH 666 0
DWIDTH 12 0
BBX 7 10 2 -1
BITMAP
44
7c
54
38
6c
fe
ba
ba
28
6c
ENDCHAR
STARTCHAR C354
ENCODING 236
SWIDTH 666 0
DWIDTH 12 0
BBX 10 10 1 -1
BITMAP
1000
1080
3940
7c80
3b80
ee80
b880
5c80
6c80
ce80
ENDCHAR
STARTCHAR C355
ENCODING 237
SWIDTH 666 0
DWIDTH 12 0
BBX 9 10 1 -1
BITMAP
1c00
1c00
1c00
3e00
7f00
dd80
be80
3600
3600
7700
ENDCHAR
STARTCHAR C356
ENCODING 238
SWIDTH 666 0
DWIDTH 12 0
BBX 10 10 1 -1
BITMAP
3000
3800
7000
77c0
d780
ef80
da00
5700
2f80
1fc0
ENDCHAR
STARTCHAR C357
ENCODING 239
SWIDTH 666 0
DWIDTH 12 0
BBX 10 11 1 -1
BITMAP
1800
3000
6700
6a80
b740
1880
0f00
0f80
0f80
0d80
18c0
ENDCHAR
STARTCHAR C360
ENCODING 240
SWIDTH 666 0
DWIDTH 12 0
BBX 8 10 1 0
BITMAP
ff
56
7e
3c
3c
38
18
18
10
10
ENDCHAR
STARTCHAR C361
ENCODING 241
SWIDTH 666 0
DWIDTH 12 0
BBX 12 9 0 -2
BITMAP
03a0
0fd0
57c0
77e0
d7e0
d7c0
eec0
58c0
1800
ENDCHAR
STARTCHAR C362
ENCODING 242
SWIDTH 666 0
DWIDTH 12 0
BBX 11 8 0 -1
BITMAP
4800
7bc0
57e0
7fe0
ff60
6560
0cc0
0180
ENDCHAR
STARTCHAR C363
ENCODING 243
SWIDTH 666 0
DWIDTH 12 0
BBX 10 8 1 -1
BITMAP
0800
1300
4f80
3f00
7cc0
f700
a4c0
2200
ENDCHAR
STARTCHAR C364
ENCODING 244
SWIDTH 666 0
DWIDTH 12 0
BBX 11 4 1 -2
BITMAP
1500
3f80
64c0
ffe0
ENDCHAR
STARTCHAR C365
ENCODING 245
SWIDTH 666 0
DWIDTH 12 0
BBX 10 10 1 -1
BITMAP
3000
7800
f800
d800
3f80
7f40
7f00
5500
5500
1100
ENDCHAR
STARTCHAR C366
ENCODING 246
SWIDTH 666 0
DWIDTH 12 0
BBX 9 9 1 -1
BITMAP
4f00
9c80
b600
eb00
dd80
6b80
3680
9c80
7900
ENDCHAR
STARTCHAR C367
ENCODING 247
SWIDTH 666 0
DWIDTH 12 0
BBX 9 9 2 0
BITMAP
3000
7800
7800
b400
fc00
7980
7b80
3f00
1e00
ENDCHAR
STARTCHAR C370
ENCODING 248
SWIDTH 666 0
DWIDTH 12 0
BBX 10 9 1 -1
BITMAP
0dc0
33c0
0f80
fec0
bd00
fe80
3a00
6e00
2000
ENDCHAR
STARTCHAR C371
ENCODING 249
SWIDTH 666 0
DWIDTH 12 0
BBX 10 9 1 0
BITMAP
0c00
6d80
3f00
3f00
ffc0
3f00
3f00
6d80
0c00
ENDCHAR
STARTCHAR C372
ENCODING 250
SWIDTH 666 0
DWIDTH 12 0
BBX 11 11 0 -2
BITMAP
0200
3700
7ac0
5e60
05e0
6ac0
fec0
cf00
1f80
3180
7bc0
ENDCHAR
STARTCHAR C373
ENCODING 251
SWIDTH 666 0
DWIDTH 12 0
BBX 9 10 1 -1
BITMAP
3e00
7700
6300
c180
f780
f780
e380
4900
7f00
3e00
ENDCHAR
STARTCHAR C374
ENCODING 252
SWIDTH 666 0
DWIDTH 12 0
BBX 11 9 0 -1
BITMAP
1f00
3f80
7fc0
4a40
4a40
52c0
7fc0
6ec0
cb60
ENDCHAR
STARTCHAR C375
ENCODING 253
SWIDTH 666 0
DWIDTH 12 0
BBX 9 10 1 -1
BITMAP
3e00
6700
7f00
e780
ff80
e780
c380
5300
6700
3e00
ENDCHAR
STARTCHAR C376
ENCODING 254
SWIDTH 666 0
DWIDTH 12 0
BBX 12 12 0 -2
BITMAP
03c0
0e00
0c00
0400
0270
1f90
7880
e040
c040
c0c0
7f80
1e00
ENDCHAR
STARTCHAR C377
ENCODING 255
SWIDTH 666 0
DWIDTH 12 0
BBX 12 12 0 -2
BITMAP
8b10
5460
2580
f600
3800
5000
5000
a000
2000
4000
4000
8000
ENDCHAR
ENDFONT
